<svg xmlns="http://www.w3.org/2000/svg" xmlns:xlink="http://www.w3.org/1999/xlink" version="1.1" x="0px" y="0px" viewBox="0 0 100 125" enable-background="new 0 0 100 100" xml:space="preserve"><g><path d="M80.715,32.863c0,0,3.298,0.257,3.769,1.799l0,0l-4.711-0.899l0,0c2.655,1.499,0,4.583,0,4.583l0,0   c2.293-4.145,13.962-4.411,14.219,1.199l0,0l0,0c0.899-1.028,0.514-3.94,0.514-3.94l0,0c-1.628-0.128-2.298-1.114-2.298-1.114   s0.199-0.557,1.227-0.685l0,0l0,0C86.454,29.823,80.715,32.863,80.715,32.863z"/></g><g><path d="M80.672,46.526c4.112,4.24,10.279,2.313,10.279,2.313c-0.899,4.497-5.268,8.737-6.167,10.15   c-0.899,1.413,0,4.882,1.285,4.882s7.709-0.385,5.782,1.156c-1.927,1.542-9.508,0.257-8.48,1.285   c1.563,1.563,9.38,0.128,6.296,2.955c-3.084,2.827-28.781-4.882-32.122-4.754s-13.106,4.369-11.692,5.011   c1.413,0.642,2.184,1.542,2.184,1.542c-0.899,2.698-4.162,1.401-8.352-0.257c-22.628-8.956-1.927-9.38-14.39-5.782   c-12.463,3.598-19.915-3.469-20.044-5.21s2.313-2.243,5.011-3.271c2.086-0.795,9.123,4.176,14.519,2.249   c0.146-0.052,1.223,2.991,1.349,2.955c0.225-0.065,0.048-3.037-0.193-3.662c-1.927-5.011,0.514-23.642,18.759-25.697   c18.245-2.056,23.128,11.564,26.982,11.435c3.278-0.109,4.791-5.144,6.039-7.754c0.22-0.459,0.431-0.843,0.642-1.112   C78.359,34.962,76.56,42.286,80.672,46.526z"/></g><g><path d="M87.824,39.93L87.824,39.93c0,0,3.469-2.313,3.683,0.428l0,0c0,0,0.32-1.312,0.701-1.371c0.841-0.128,3.497,0,0.884,7.452   l0,0l-0.3-1.927c0,0-0.343-1.071-1.756-1.071l0,0c0,0-0.428,2.441-2.441-0.557l0,0c0,0-3.169-0.171-3.919,3.341l0,0l-0.578-2.698   l0,0c0,0-3.683-4.54,1.156-4.411l0,0C85.254,39.116,87.18,38.988,87.824,39.93z M84.623,39.845c-0.585,0-1.06,0.475-1.06,1.06   c0,0.585,0.475,1.06,1.06,1.06s1.06-0.475,1.06-1.06C85.683,40.319,85.208,39.845,84.623,39.845z M92.942,40.551   c-0.319,0-0.578,0.403-0.578,0.899s0.259,0.899,0.578,0.899s0.578-0.403,0.578-0.899S93.262,40.551,92.942,40.551z"/></g><g><path d="M88.485,45.369c0.195-0.6-0.19,0.728,0.367,0.857c0.557,0.128-0.171,0.942,1.328,0.857s0.857-0.428,1.156-0.642   c0.3-0.214,1.114-1.115,0.6-1.475c-0.514-0.359-0.856,0.104-0.942-1.352c-0.086-1.456-1.687-0.878-1.714-0.386   c-0.026,0.493,0.642,1.052-0.043,1.456C88.552,45.088,88.485,45.369,88.485,45.369z"/></g><text x="0" y="115" fill="#000000" font-size="5px" font-weight="bold" font-family="'Helvetica Neue', Helvetica, Arial-Unicode, Arial, Sans-serif">Created by Dan Stack</text><text x="0" y="120" fill="#000000" font-size="5px" font-weight="bold" font-family="'Helvetica Neue', Helvetica, Arial-Unicode, Arial, Sans-serif">from the Noun Project</text></svg>