<svg xmlns:dc="http://purl.org/dc/elements/1.1/" xmlns:cc="http://creativecommons.org/ns#" xmlns:rdf="http://www.w3.org/1999/02/22-rdf-syntax-ns#" xmlns:svg="http://www.w3.org/2000/svg" xmlns="http://www.w3.org/2000/svg" xmlns:sodipodi="http://sodipodi.sourceforge.net/DTD/sodipodi-0.dtd" xmlns:inkscape="http://www.inkscape.org/namespaces/inkscape" viewBox="0 0 12.7 15.875" version="1.1" x="0px" y="0px"><g transform="translate(0,-284.29998)"><path style="" d="m 10.770632,285.66009 a 0.27162492,0.27162492 0 0 0 -0.07716,0.0108 l -1.7380592,0.51026 -0.445971,0.17129 a 1.5036557,1.5036557 0 0 0 -0.3688069,0.43206 0.27162492,0.27162492 0 0 1 -0.2581965,0.13632 0.65520785,0.65520785 0 0 0 -0.1748963,1.29725 3.9153878,3.9153878 0 0 1 -0.089489,2.12948 0.54324986,0.54324986 0 0 1 -0.4932965,0.37292 l -1.6238673,0.0684 a 1.9775363,1.9775363 0 0 0 -1.4083349,0.67638 0.27162492,0.27162492 0 0 1 -0.3657257,0.0401 6.7475607,6.7475607 0 0 1 -2.4324564,-3.41081 0.28493929,0.28493929 0 0 0 -0.5400952,-0.0124 3.7242497,3.7242497 0 0 0 0.11777384,2.83626 0.54324986,0.54324986 0 0 0 0.0478522,0.0838 5.8128673,5.8128673 0 0 0 2.50859326,2.02251 0.27162492,0.27162492 0 0 1 0.1368146,0.1286 l 1.1758422,2.33677 a 0.27162492,0.27162492 0 0 0 0.2422897,0.1497 H 7.779044 a 0.27162492,0.27162492 0 0 0 0.1928836,-0.46243 2.3231449,2.3231449 0 0 0 -0.9798772,-0.59101 0.10865,0.10865 0 0 1 0,-0.20781 2.9232177,2.9232177 0 0 0 1.9175908,-1.90574 0.10865,0.10865 0 0 1 0.1676803,-0.0545 4.5813935,4.5813935 0 0 0 1.4222405,0.70572 0.39173313,0.39173313 0 0 0 0.327644,-0.70161 2.7778948,2.7778948 0 0 1 -1.0380007,-1.28026 0.10865,0.10865 0 0 1 0.093624,-0.14917 2.4647342,2.4647342 0 0 1 1.7416677,0.5658 0.33310665,0.33310665 0 0 0 0.496878,-0.43054 2.3317116,2.3317116 0 0 0 -1.300332,-1.00558 0.27162492,0.27162492 0 0 1 -0.191856,-0.27263 3.4494282,3.4494282 0 0 0 -0.289089,-1.55134 0.81487475,0.81487475 0 0 1 -0.03961,-0.54523 2.1573445,2.1573445 0 0 1 0.512838,-0.9094 1.2713939,1.2713939 0 0 0 0.224249,-0.95725 0.27162492,0.27162492 0 0 0 -0.26694,-0.22683 z m -1.996282,1.24529 a 0.1912722,0.1912722 0 0 1 0.1944374,0.19341 0.1912722,0.1912722 0 1 1 -0.3821856,0 0.1912722,0.1912722 0 0 1 0.1877482,-0.19341 z" fill="#000000" stroke="none"/></g><text x="0" y="27.7" fill="#000000" font-size="5px" font-weight="bold" font-family="'Helvetica Neue', Helvetica, Arial-Unicode, Arial, Sans-serif">Created by Phạm Thanh Lộc</text><text x="0" y="32.7" fill="#000000" font-size="5px" font-weight="bold" font-family="'Helvetica Neue', Helvetica, Arial-Unicode, Arial, Sans-serif">from the Noun Project</text></svg>