<svg xmlns="http://www.w3.org/2000/svg" xmlns:xlink="http://www.w3.org/1999/xlink" version="1.1" x="0px" y="0px" viewBox="0 0 100 125" style="enable-background:new 0 0 100 100;" xml:space="preserve"><path d="M68,73.5c0,0.5,0.4,0.7,0.6,1c0.2,0.2,0.5,0.4,0.3,0.8c-0.2,0.3-0.5,0.6-1,0.4c-1.3-0.4-2.5-1-3.4-2.1  c-0.1-0.1-0.1-0.2-0.3-0.5c-0.1,0.6,0.2,0.9,0.2,1.3c0,0.4,0.2,0.8-0.3,1c-0.4,0.2-0.8-0.1-1-0.4c-0.4-0.5-0.9-1.1-1.1-1.7  c-1.1-2.7-2.6-5.2-3.8-7.9c-0.3-0.7-0.7-1.4-1.1-2c-1.1-2.1-2.9-2.9-5.1-3c-2.3-0.1-4.5,0.4-6.7,0.6c-2.2,0.2-4.5,0.4-6.7,0.7  c-1.3,0.2-2.6,0-3.9-0.3c-0.2,0-0.6-0.3-0.5,0.3c0.2,1.3-0.1,2.5-0.4,3.7c-0.2,0.8,0,1.4,0.8,1.8c1,0.5,1.9,1.2,2.8,1.9  c1.6,1.1,3.4,1.3,5.2,1.5c1.5,0.2,2.1,0.8,2,1.9c0,0.5-0.2,0.9-0.8,1c-0.3,0-0.7,0.2-1,0.1c-2.4,0-4.8,0-7.2-0.1  c-1.3-0.1-2.3-1.1-3.4-1.8c-1.4-0.9-2.6-2-4-2.9c-1.5-1-2-2.5-2.3-4.2c-0.1-0.9-0.4-1.8-0.9-2.6c-0.8-1.5-2-2.6-3.6-3.2  c-1.4-0.5-2.7-1.1-4.2-1.3c-1-0.2-1.8-0.9-2.7-1.4c-3.8-2.2-6.6-5.3-7.8-9.7C5.9,42.6,6.4,39,9,35.9c2.5-3,5.2-5.6,8.4-7.8  c3.1-2.1,6.6-2.7,10.2-2.6c5.4,0.2,10.6,1.3,15.9,2.3c3.8,0.7,7.5,1.6,11.3,2c3.5,0.3,7-0.1,10.4-0.9c2.3-0.6,4.6-1.4,6.9-2  c0.7-0.2,1,0,0.8,0.8c-0.1,0.4-0.4,0.9-0.5,1.3c-0.4,1.2-0.1,2.4,0.6,3.4c0.1,0.1,0.2,0.4,0.4,0.3c0.2-0.1,0.1-0.3,0.1-0.4  c-0.1-1.3-0.1-2.6,0.5-3.8c0.4-0.9,0.2-1.9-0.3-2.8c-0.2-0.3-0.4-0.7-0.1-1.1c0.3-0.4,0.7-0.3,1.1-0.1c1,0.3,1.7,0.9,2.1,2  c0.6,1.7,1,3.4,0.7,5.2c0,0.1,0,0.1,0,0.2c0,0.3-0.1,0.7,0.2,0.8c0.3,0.1,0.3-0.4,0.5-0.6c1-1.5,0.9-3.1,0.3-4.7  c-0.1-0.2-0.1-0.4-0.2-0.7c2.4,0.8,4.6,1.6,6.7,2.7c1.5,0.7,2.9,1.4,4.4,2.1c0.9,0.4,1.6,0.9,2.4,1.4c1.5,1,1.9,2.4,1.8,4.1  c0,0.3,0,0.5-0.3,0.6c-0.3,0.1-0.4-0.2-0.6-0.4c-0.1-0.2-0.3-0.4-0.5-0.6c-0.2-0.2-0.4-0.5-0.7-0.3c-0.3,0.2-0.3,0.5-0.1,0.8  c0.5,1,0.9,2,1.3,3c0.3,0.6,0.1,1-0.3,1.5c-2.6,2.5-6.9,3.9-10.5,2c-0.8-0.4-1.6-0.8-2.4-1.2c-0.2-0.1-0.4-0.3-0.5-0.1  c-0.2,0.2,0.1,0.4,0.2,0.5c0.8,0.9,1.8,1.6,2.9,2.2c0.5,0.3,0.4,0.4,0,0.7c-1.7,1.4-3.4,2.6-5.2,3.8c-2,1.4-3.9,2.8-6,4.1  c-2.5,1.6-4,3.8-4.7,6.6c-0.5,2.1-1.1,4.3-1.4,6.4c-0.4,2.2,0.9,4.3,3,4.9c1,0.3,1.8,0.8,2.2,1.9c0.1,0.3,0.1,0.6-0.2,0.8  c-0.3,0.2-0.6,0.1-0.8-0.1C68.7,73.9,68.5,73.4,68,73.5C68,73.4,67.9,73.4,68,73.5C67.9,73.4,67.9,73.4,68,73.5  C67.9,73.4,68,73.4,68,73.5z M82.2,33.3c0.2,0,0.2,0,0.3,0c0.5-0.1,1.1,0,1.5-0.3c-0.3-0.4-0.8-0.7-1.2-1c-0.7-0.4-1.5-0.7-2.4-0.4  c-0.4,0.2-0.6,0.4-0.1,0.8C80.8,33,81.4,33.4,82.2,33.3z M28.4,70.4c-2.1-1.2-3.3-3-3.6-5.5c-0.2-2-1.3-3.5-3.2-4.4  c-1-0.5-2-0.8-3-1.2c-0.1-0.1-0.3-0.1-0.5,0c-0.1,0.1,0,0.3,0,0.4c0.5,1.1,0.7,2.3,0.7,3.4c0,1.7,0.6,3,1.7,4.2  c0.6,0.7,1.3,1.3,1.9,1.9c1.9,2.1,4.3,2.7,7.2,2.1C29.2,71,28.8,70.7,28.4,70.4z"/><text x="0" y="115" fill="#000000" font-size="5px" font-weight="bold" font-family="'Helvetica Neue', Helvetica, Arial-Unicode, Arial, Sans-serif">Created by T. Kiefer Robertson</text><text x="0" y="120" fill="#000000" font-size="5px" font-weight="bold" font-family="'Helvetica Neue', Helvetica, Arial-Unicode, Arial, Sans-serif">from the Noun Project</text></svg>