<svg xmlns="http://www.w3.org/2000/svg" xmlns:xlink="http://www.w3.org/1999/xlink" version="1.1" x="0px" y="0px" viewBox="0 0 100 125" enable-background="new 0 0 100 100" xml:space="preserve"><g><path d="M2.34,19.486c1.223,0.224,3.157,0.422,6.212,0.435c0.343,0.055,1.248,0.65,1.83,1.82c0.495,1.404,3.063,8.759,7.896,12.759   h0.033c0.328,0,0.661,0.272,0.997,0.545l0.043-0.088c0.577,0.988,0.459,1.134-1.504,4.613c-1.063,1.883-3.554,6.263-3.747,7.245   c-0.228,1.591,0.164,2.974,1.164,4.128c1.222,1.408,3.105,2.156,4.391,2.199c-0.202-0.278-0.528-0.665-1.059-1.163   c-1.201-1.122-1.784-2.555-1.685-4.141c0.215-3.47,3.798-6.979,5.888-8.743c0.435-0.198,2.492-1.076,5.08-1.3   c0.277-0.008,0.556-0.024,0.836-0.048c2.081-0.058,4.413,0.365,6.49,1.879c2.134,1.935,5.917,4.775,10.073,5.149   c0.524,0.126,2.13,0.681,2.368,2.789c0.149,3.705,1.467,18.246,12.781,26.783c3.007,2.268,4.6,4.814,4.733,7.567   c0.232,4.815-4.033,8.779-6.908,11.42c3.408-0.834,10.145-3.252,11.662-7.338c0.816-2.196,0.036-4.831-2.32-7.832   c-11.596-14.771-4.129-28.076-3.807-28.636l0.156-0.27l0.238-0.203c3.113-2.672,7.405-7.509,7.615-10.233   c0.224-0.604,1.452-3.301,4.676-0.015c0.333,0.336,0.618,0.598,0.857,0.792c3.866,4.542,10.68,15.464,10.284,35.792   c-0.109,5.535,1.083,9.737,3.448,12.149c1.88,1.918,4.143,2.321,5.709,2.321c0.46,0,0.921-0.042,1.383-0.102   c0.4-0.186,1.197-0.706-0.301-1.468c-2.674-0.471-5.997-2.349-6.773-8.576c-0.361-2.878-0.255-6.313-0.13-10.291   c0.433-13.943,1.023-33.037-19.06-44.888c-0.104-0.06-10.84-6.248-23.916-6.248c-3.728,0-7.327,0.503-10.704,1.495   c-4.401,1.295-8.198,1.951-11.287,1.951c-9.459,0-9.828-6-9.838-6.254l-0.057-1.273l1.174-0.496   c0.233-0.099,4.903-2.189,6.101-7.58c0.002-0.024,0.002-0.041,0.003-0.065c0.178-1.726-1.549-1.026-1.549-1.026l0.092-0.051   c-2.649,0.958-6.133,2.808-8.427,6.276l-0.576,0.872l-1.045-0.053c-0.016,0-0.11-0.004-0.263-0.004   c-1.026,0-6.172,0.177-6.999,3.673L4.407,16.58L3.65,16.967c-0.61,0.312-1.237,0.706-1.773,1.092   C1.686,18.233,0.847,19.092,2.34,19.486z"/></g><text x="0" y="115" fill="#000000" font-size="5px" font-weight="bold" font-family="'Helvetica Neue', Helvetica, Arial-Unicode, Arial, Sans-serif">Created by Iconic</text><text x="0" y="120" fill="#000000" font-size="5px" font-weight="bold" font-family="'Helvetica Neue', Helvetica, Arial-Unicode, Arial, Sans-serif">from the Noun Project</text></svg>