<svg xmlns="http://www.w3.org/2000/svg" viewBox="0 0 28 35" x="0px" y="0px"><title>icon_84Artboard 1</title><path d="M22.714,8.528c-.049-.02-.1-.04-.137-.06L19.952,2.482a.741.741,0,0,0-1.347-.04,4.56,4.56,0,0,0-.264.673c-.439,1.577.351,3.645.791,4.73L15.091,3.4a.737.737,0,0,0-1.269.442,3.584,3.584,0,0,0-.02.723c.127,2.239,2.313,4.82,3.7,5.664a3.864,3.864,0,0,0-.322,2.159,8.874,8.874,0,0,0-5.779-2.26c-4.217,0-6.228,3.685-6.228,7.753a7.077,7.077,0,0,0,.068.924A1.842,1.842,0,0,1,3.68,17.706a2.622,2.622,0,0,0-1.572,2.43,2.585,2.585,0,0,0,2.557,2.631,2.507,2.507,0,0,0,1.913-.9,5.667,5.667,0,0,0,1.65,1.265,1.436,1.436,0,0,0-.547,1.034,1.463,1.463,0,0,0,1.2,1.808h7.77c.664,0,.537-2.36-1.708-2.36H11.791a.492.492,0,0,1-.469-.372.507.507,0,0,1,.224-.562,4.811,4.811,0,0,0-.068-8.265.5.5,0,0,1-.2-.683.475.475,0,0,1,.664-.191,5.831,5.831,0,0,1,1.269,9.068h8.512a2.055,2.055,0,0,0,.01-.813,1.869,1.869,0,0,0-1.845-1.557h-.771c.625-3.585,2.606-4.278,2.684-4.348,1.581.06,3.2-.352,3.817-1.446C26.658,12.6,24.491,9.592,22.714,8.528Zm-.878,3.555a.753.753,0,1,1,.732-.753A.748.748,0,0,1,21.836,12.083Z"/><text x="0" y="43" fill="#000000" font-size="5px" font-weight="bold" font-family="'Helvetica Neue', Helvetica, Arial-Unicode, Arial, Sans-serif">Created by Iconographer</text><text x="0" y="48" fill="#000000" font-size="5px" font-weight="bold" font-family="'Helvetica Neue', Helvetica, Arial-Unicode, Arial, Sans-serif">from the Noun Project</text></svg>